# xmcd
#
# Track frame offsets:
#	150
#	12697
#	26072
#	43577
#	59072
#	73020
#	85104
#	98317
#	117475
#
# Disc length: 1765 seconds
#
# Revision: 0
# Processed by: cddbd v1.5.2PL0 Copyright (c) Steve Scherf et al.
# Submitted via: audiograbber 1.83.01
#
DISCID=7706e309
DTITLE=Dolly Parton - Very Best of Love,  Disc 1
DYEAR=1998
DGENRE=Country
TTITLE0=9 to 5
TTITLE1=Here You Come Again
TTITLE2=Do I Ever Cross Your Mind
TTITLE3=Think About Love
TTITLE4=Coat of Many Colors
TTITLE5=Jolene
TTITLE6=I Will Always Love You
TTITLE7=Appalachian Memories
TTITLE8=But You Know I Love You
EXTD=
EXTT0=
EXTT1=
EXTT2=
EXTT3=
EXTT4=
EXTT5=
EXTT6=
EXTT7=
EXTT8=
PLAYORDER=
